<svg xmlns="http://www.w3.org/2000/svg" width="360" height="580" viewBox="0 0 360 580">
  <title>Bookmarks — Wireframe</title>
  <rect width="360" height="580" fill="#fff"/>
  <rect x="0" y="0" width="360" height="38" fill="#2c3e50" stroke="none" stroke-width="1" rx="0"/>
<text x="14" y="24" font-size="11" fill="#ecf0f1" text-anchor="start" font-family="Arial,sans-serif" font-weight="bold">JEP</text>
<text x="350" y="24" font-size="5.5" fill="#95a5a6" text-anchor="end" font-family="Arial,sans-serif" font-weight="normal">Home · About · Gallery · Draw · Bookmarks · Contact</text>
<rect x="0" y="38" width="360" height="52" fill="#2c3e50" stroke="none" stroke-width="1" rx="0"/>
<text x="180" y="68" font-size="16" fill="#ecf0f1" text-anchor="middle" font-family="Arial,sans-serif" font-weight="bold">Bookmarks</text>
<rect x="0" y="90" width="360" height="1" fill="#e0e0e0" stroke="none" stroke-width="1" rx="0"/>
<text x="16" y="104" font-size="9" fill="#2c3e50" text-anchor="start" font-family="Arial,sans-serif" font-weight="bold">Design & Colour Tools</text>
<line x1="16" y1="109" x2="74" y2="109" stroke="#b45309" stroke-width="2"/>
<rect x="16" y="118" width="104" height="32" fill="#f5f5f5" stroke="#ddd" stroke-width="1" rx="2"/>
<rect x="20" y="124" width="20" height="20" fill="#dde4ee" stroke="#bbc" stroke-width="1" rx="2"/>
<text x="44" y="132" font-size="6.5" fill="#2c3e50" text-anchor="start" font-family="Arial,sans-serif" font-weight="bold">Coolors</text>
<text x="44" y="141" font-size="5.5" fill="#888" text-anchor="start" font-family="Arial,sans-serif" font-weight="normal">Color palette tool</text>
<rect x="128" y="118" width="104" height="32" fill="#f5f5f5" stroke="#ddd" stroke-width="1" rx="2"/>
<rect x="132" y="124" width="20" height="20" fill="#dde4ee" stroke="#bbc" stroke-width="1" rx="2"/>
<text x="156" y="132" font-size="6.5" fill="#2c3e50" text-anchor="start" font-family="Arial,sans-serif" font-weight="bold">Adobe Color</text>
<text x="156" y="141" font-size="5.5" fill="#888" text-anchor="start" font-family="Arial,sans-serif" font-weight="normal">Color wheel</text>
<rect x="240" y="118" width="104" height="32" fill="#f5f5f5" stroke="#ddd" stroke-width="1" rx="2"/>
<rect x="244" y="124" width="20" height="20" fill="#dde4ee" stroke="#bbc" stroke-width="1" rx="2"/>
<text x="268" y="132" font-size="6.5" fill="#2c3e50" text-anchor="start" font-family="Arial,sans-serif" font-weight="bold">Contrast Checker</text>
<text x="268" y="141" font-size="5.5" fill="#888" text-anchor="start" font-family="Arial,sans-serif" font-weight="normal">WCAG tool</text>
<rect x="16" y="156" width="104" height="32" fill="#f5f5f5" stroke="#ddd" stroke-width="1" rx="2"/>
<rect x="20" y="162" width="20" height="20" fill="#dde4ee" stroke="#bbc" stroke-width="1" rx="2"/>
<text x="44" y="170" font-size="6.5" fill="#2c3e50" text-anchor="start" font-family="Arial,sans-serif" font-weight="bold">Google Fonts</text>
<text x="44" y="179" font-size="5.5" fill="#888" text-anchor="start" font-family="Arial,sans-serif" font-weight="normal">Font pairing</text>
<rect x="128" y="156" width="104" height="32" fill="#f5f5f5" stroke="#ddd" stroke-width="1" rx="2"/>
<rect x="132" y="162" width="20" height="20" fill="#dde4ee" stroke="#bbc" stroke-width="1" rx="2"/>
<text x="156" y="170" font-size="6.5" fill="#2c3e50" text-anchor="start" font-family="Arial,sans-serif" font-weight="bold">Unsplash</text>
<text x="156" y="179" font-size="5.5" fill="#888" text-anchor="start" font-family="Arial,sans-serif" font-weight="normal">Free photos</text>
<rect x="240" y="156" width="104" height="32" fill="#f5f5f5" stroke="#ddd" stroke-width="1" rx="2"/>
<rect x="244" y="162" width="20" height="20" fill="#dde4ee" stroke="#bbc" stroke-width="1" rx="2"/>
<text x="268" y="170" font-size="6.5" fill="#2c3e50" text-anchor="start" font-family="Arial,sans-serif" font-weight="bold">Font Awesome</text>
<text x="268" y="179" font-size="5.5" fill="#888" text-anchor="start" font-family="Arial,sans-serif" font-weight="normal">Icon library</text>
<rect x="0" y="206" width="360" height="1" fill="#e0e0e0" stroke="none" stroke-width="1" rx="0"/>
<text x="16" y="220" font-size="9" fill="#2c3e50" text-anchor="start" font-family="Arial,sans-serif" font-weight="bold">Development & Learning</text>
<line x1="16" y1="225" x2="74" y2="225" stroke="#b45309" stroke-width="2"/>
<rect x="16" y="234" width="104" height="32" fill="#f5f5f5" stroke="#ddd" stroke-width="1" rx="2"/>
<rect x="20" y="240" width="20" height="20" fill="#dde4ee" stroke="#bbc" stroke-width="1" rx="2"/>
<text x="44" y="248" font-size="6.5" fill="#2c3e50" text-anchor="start" font-family="Arial,sans-serif" font-weight="bold">MDN Web Docs</text>
<text x="44" y="257" font-size="5.5" fill="#888" text-anchor="start" font-family="Arial,sans-serif" font-weight="normal">HTML/CSS/JS ref</text>
<rect x="128" y="234" width="104" height="32" fill="#f5f5f5" stroke="#ddd" stroke-width="1" rx="2"/>
<rect x="132" y="240" width="20" height="20" fill="#dde4ee" stroke="#bbc" stroke-width="1" rx="2"/>
<text x="156" y="248" font-size="6.5" fill="#2c3e50" text-anchor="start" font-family="Arial,sans-serif" font-weight="bold">W3Schools</text>
<text x="156" y="257" font-size="5.5" fill="#888" text-anchor="start" font-family="Arial,sans-serif" font-weight="normal">Tutorials</text>
<rect x="240" y="234" width="104" height="32" fill="#f5f5f5" stroke="#ddd" stroke-width="1" rx="2"/>
<rect x="244" y="240" width="20" height="20" fill="#dde4ee" stroke="#bbc" stroke-width="1" rx="2"/>
<text x="268" y="248" font-size="6.5" fill="#2c3e50" text-anchor="start" font-family="Arial,sans-serif" font-weight="bold">GitHub Education</text>
<text x="268" y="257" font-size="5.5" fill="#888" text-anchor="start" font-family="Arial,sans-serif" font-weight="normal">Student pack</text>
<rect x="16" y="272" width="104" height="32" fill="#f5f5f5" stroke="#ddd" stroke-width="1" rx="2"/>
<rect x="20" y="278" width="20" height="20" fill="#dde4ee" stroke="#bbc" stroke-width="1" rx="2"/>
<text x="44" y="286" font-size="6.5" fill="#2c3e50" text-anchor="start" font-family="Arial,sans-serif" font-weight="bold">Git Cheat Sheet</text>
<text x="44" y="295" font-size="5.5" fill="#888" text-anchor="start" font-family="Arial,sans-serif" font-weight="normal">Quick reference</text>
<rect x="0" y="528" width="360" height="52" fill="#2c3e50" stroke="none" stroke-width="1" rx="0"/>
<text x="180" y="545" font-size="5.5" fill="#7f8c8d" text-anchor="middle" font-family="Arial,sans-serif" font-weight="normal">Home · Gallery · Draw · Community · Bookmarks · Story · Wireframe</text>
<text x="180" y="559" font-size="7" fill="#95a5a6" text-anchor="middle" font-family="Arial,sans-serif" font-weight="normal">© 2025 John E. Parman</text>
</svg>
