<svg xmlns="http://www.w3.org/2000/svg" width="360" height="580" viewBox="0 0 360 580">
  <title>Home — Wireframe</title>
  <rect width="360" height="580" fill="#fff"/>
  <rect x="0" y="0" width="360" height="38" fill="#2c3e50" stroke="none" stroke-width="1" rx="0"/>
<text x="14" y="24" font-size="11" fill="#ecf0f1" text-anchor="start" font-family="Arial,sans-serif" font-weight="bold">JEP</text>
<text x="350" y="24" font-size="5.5" fill="#95a5a6" text-anchor="end" font-family="Arial,sans-serif" font-weight="normal">Home · About · Gallery · Draw · Bookmarks · Contact</text>
<rect x="0" y="38" width="360" height="76" fill="#2c3e50" stroke="none" stroke-width="1" rx="0"/>
<text x="180" y="60" font-size="14" fill="#ecf0f1" text-anchor="middle" font-family="Arial,sans-serif" font-weight="bold">john e. parman</text>
<text x="180" y="75" font-size="8" fill="#95a5a6" text-anchor="middle" font-family="Arial,sans-serif" font-weight="normal">creative communication practice</text>
<rect x="70" y="88" width="96" height="18" fill="#b45309" stroke="none" stroke-width="1" rx="3"/>
<text x="118" y="100" font-size="7" fill="#fff" text-anchor="middle" font-family="Arial,sans-serif" font-weight="normal">View Portfolio</text>
<rect x="196" y="88" width="84" height="18" fill="#4a6077" stroke="none" stroke-width="1" rx="3"/>
<text x="238" y="100" font-size="7" fill="#fff" text-anchor="middle" font-family="Arial,sans-serif" font-weight="normal">Contact Me</text>
<text x="16" y="128" font-size="9" fill="#2c3e50" text-anchor="start" font-family="Arial,sans-serif" font-weight="bold">About My Practice</text>
<line x1="16" y1="133" x2="74" y2="133" stroke="#b45309" stroke-width="2"/>
<text x="16" y="144" font-size="6.5" fill="#ccc" text-anchor="start" font-family="Arial,sans-serif" font-weight="normal">████████████████████████████████</text>
<text x="16" y="155" font-size="6.5" fill="#ccc" text-anchor="start" font-family="Arial,sans-serif" font-weight="normal">██████████████████████████</text>
<text x="16" y="166" font-size="6.5" fill="#ccc" text-anchor="start" font-family="Arial,sans-serif" font-weight="normal">████████████████████</text>
<rect x="240" y="142" width="100" height="62" fill="#dde4ee" stroke="#aab" stroke-width="1" rx="2"/>
<line x1="240" y1="142" x2="340" y2="204" stroke="#bbc" stroke-width="1"/>
<line x1="340" y1="142" x2="240" y2="204" stroke="#bbc" stroke-width="1"/>
<text x="290" y="176" font-size="7" fill="#88a" text-anchor="middle" font-family="Arial,sans-serif" font-weight="normal">photo</text>
<line x1="0" y1="216" x2="360" y2="216" stroke="#e0e0e0" stroke-width="1"/>
<text x="16" y="230" font-size="9" fill="#2c3e50" text-anchor="start" font-family="Arial,sans-serif" font-weight="bold">Featured Video</text>
<line x1="16" y1="235" x2="74" y2="235" stroke="#b45309" stroke-width="2"/>
<rect x="24" y="246" width="312" height="52" fill="#dde4ee" stroke="#aab" stroke-width="1" rx="2"/>
<line x1="24" y1="246" x2="336" y2="298" stroke="#bbc" stroke-width="1"/>
<line x1="336" y1="246" x2="24" y2="298" stroke="#bbc" stroke-width="1"/>
<text x="180" y="275" font-size="7" fill="#88a" text-anchor="middle" font-family="Arial,sans-serif" font-weight="normal">▶  video embed</text>
<line x1="0" y1="310" x2="360" y2="310" stroke="#e0e0e0" stroke-width="1"/>
<text x="16" y="324" font-size="9" fill="#2c3e50" text-anchor="start" font-family="Arial,sans-serif" font-weight="bold">Portfolio</text>
<line x1="16" y1="329" x2="74" y2="329" stroke="#b45309" stroke-width="2"/>
<rect x="16" y="338" width="104" height="44" fill="#dde4ee" stroke="#aab" stroke-width="1" rx="2"/>
<line x1="16" y1="338" x2="120" y2="382" stroke="#bbc" stroke-width="1"/>
<line x1="120" y1="338" x2="16" y2="382" stroke="#bbc" stroke-width="1"/>
<text x="68" y="363" font-size="7" fill="#88a" text-anchor="middle" font-family="Arial,sans-serif" font-weight="normal"></text>
<rect x="16" y="384" width="104" height="18" fill="#f5f5f5" stroke="#aaa" stroke-width="1" rx="2"/>
<text x="68" y="396" font-size="7" fill="#333" text-anchor="middle" font-family="Arial,sans-serif" font-weight="normal">Gallery</text>
<rect x="128" y="338" width="104" height="44" fill="#dde4ee" stroke="#aab" stroke-width="1" rx="2"/>
<line x1="128" y1="338" x2="232" y2="382" stroke="#bbc" stroke-width="1"/>
<line x1="232" y1="338" x2="128" y2="382" stroke="#bbc" stroke-width="1"/>
<text x="180" y="363" font-size="7" fill="#88a" text-anchor="middle" font-family="Arial,sans-serif" font-weight="normal"></text>
<rect x="128" y="384" width="104" height="18" fill="#f5f5f5" stroke="#aaa" stroke-width="1" rx="2"/>
<text x="180" y="396" font-size="7" fill="#333" text-anchor="middle" font-family="Arial,sans-serif" font-weight="normal">Floatjet</text>
<rect x="240" y="338" width="104" height="44" fill="#dde4ee" stroke="#aab" stroke-width="1" rx="2"/>
<line x1="240" y1="338" x2="344" y2="382" stroke="#bbc" stroke-width="1"/>
<line x1="344" y1="338" x2="240" y2="382" stroke="#bbc" stroke-width="1"/>
<text x="292" y="363" font-size="7" fill="#88a" text-anchor="middle" font-family="Arial,sans-serif" font-weight="normal"></text>
<rect x="240" y="384" width="104" height="18" fill="#f5f5f5" stroke="#aaa" stroke-width="1" rx="2"/>
<text x="292" y="396" font-size="7" fill="#333" text-anchor="middle" font-family="Arial,sans-serif" font-weight="normal">Art Me</text>
<line x1="0" y1="410" x2="360" y2="410" stroke="#e0e0e0" stroke-width="1"/>
<text x="16" y="424" font-size="9" fill="#2c3e50" text-anchor="start" font-family="Arial,sans-serif" font-weight="bold">Recent Updates</text>
<line x1="16" y1="429" x2="74" y2="429" stroke="#b45309" stroke-width="2"/>
<rect x="16" y="438" width="7" height="7" fill="#b45309" stroke="none" stroke-width="1" rx="1"/>
<text x="29" y="445" font-size="6" fill="#ccc" text-anchor="start" font-family="Arial,sans-serif" font-weight="normal">████████████████████████████</text>
<rect x="16" y="455" width="7" height="7" fill="#b45309" stroke="none" stroke-width="1" rx="1"/>
<text x="29" y="462" font-size="6" fill="#ccc" text-anchor="start" font-family="Arial,sans-serif" font-weight="normal">████████████████████████████</text>
<rect x="16" y="472" width="7" height="7" fill="#b45309" stroke="none" stroke-width="1" rx="1"/>
<text x="29" y="479" font-size="6" fill="#ccc" text-anchor="start" font-family="Arial,sans-serif" font-weight="normal">████████████████████████████</text>
<line x1="0" y1="492" x2="360" y2="492" stroke="#e0e0e0" stroke-width="1"/>
<rect x="0" y="492" width="360" height="36" fill="#34495e" stroke="none" stroke-width="1" rx="0"/>
<text x="180" y="507" font-size="9" fill="#ecf0f1" text-anchor="middle" font-family="Arial,sans-serif" font-weight="bold">Contact</text>
<rect x="16" y="514" width="328" height="13" fill="#fff" stroke="#ccc" stroke-width="1" rx="2"/>
<text x="180" y="523" font-size="7" fill="#333" text-anchor="middle" font-family="Arial,sans-serif" font-weight="normal">Name</text>
<rect x="16" y="531" width="328" height="13" fill="#fff" stroke="#ccc" stroke-width="1" rx="2"/>
<text x="180" y="540" font-size="7" fill="#333" text-anchor="middle" font-family="Arial,sans-serif" font-weight="normal">Email</text>
<rect x="16" y="548" width="328" height="18" fill="#fff" stroke="#ccc" stroke-width="1" rx="2"/>
<text x="180" y="560" font-size="7" fill="#333" text-anchor="middle" font-family="Arial,sans-serif" font-weight="normal">Message</text>
<rect x="140" y="571" width="80" height="15" fill="#b45309" stroke="none" stroke-width="1" rx="3"/>
<text x="180" y="581" font-size="7" fill="#fff" text-anchor="middle" font-family="Arial,sans-serif" font-weight="normal">Send Message</text>
<rect x="0" y="528" width="360" height="52" fill="#2c3e50" stroke="none" stroke-width="1" rx="0"/>
<text x="180" y="545" font-size="5.5" fill="#7f8c8d" text-anchor="middle" font-family="Arial,sans-serif" font-weight="normal">Home · Gallery · Draw · Community · Bookmarks · Story · Wireframe</text>
<text x="180" y="559" font-size="7" fill="#95a5a6" text-anchor="middle" font-family="Arial,sans-serif" font-weight="normal">© 2025 John E. Parman</text>
</svg>
